PathFileType	4	(X/Y/Z)	/Users/niels/Desktop/University/Third Semester/Perception and Action/Exam/Gymnastics Motion Tracking/Code for Gym Tracking/Analyzed Data/Webcam_Backflip/id19_1_trajectory_Sports2D/id19_1_trajectory_Sports2D_px_person00.trc
DataRate	CameraRate	NumFrames	NumMarkers	Units	OrigDataRate	OrigDataStartFrame	OrigNumFrames
29.702970297029704	29.702970297029704	9	22	m	29.702970297029704	12	101
Frame#	Time	Hip			RHip			RKnee			RAnkle			RBigToe			RSmallToe			RHeel			LHip			LKnee			LAnkle			LBigToe			LSmallToe			LHeel			Neck			Head			Nose			RShoulder			RElbow			RWrist			LShoulder			LElbow			LWrist		
		X1	Y1	Z1	X2	Y2	Z2	X3	Y3	Z3	X4	Y4	Z4	X5	Y5	Z5	X6	Y6	Z6	X7	Y7	Z7	X8	Y8	Z8	X9	Y9	Z9	X10	Y10	Z10	X11	Y11	Z11	X12	Y12	Z12	X13	Y13	Z13	X14	Y14	Z14	X15	Y15	Z15	X16	Y16	Z16	X17	Y17	Z17	X18	Y18	Z18	X19	Y19	Z19	X20	Y20	Z20	X21	Y21	Z21	X22	Y22	Z22
12	0.40399999999999997	0.9457046366576712	-0.7203321978672829	0.0	0.9456510673317295	-0.72069040969466	0.0	0.943861267456087	-0.8133470902161051	0.0	0.9330483316620736	-0.9083956739483722	0.0	0.9644799113427478	-0.9191162987317799	0.0	0.9596108955433162	-0.9236169414145198	0.0	0.9263857722664747	-0.9200303128166114	0.0	0.948399981690751	-0.7198746992936015	0.0	0.9459421681051371	-0.811751415174019	0.0	0.9358351294306495	-0.9043801958424339	0.0	0.9677421750153077	-0.915634253966967	0.0	0.961424793102326	-0.9144448029872175	0.0	0.9248750314043226	-0.9157292659738668	0.0	0.9654330301748705	-0.5738357411959717	0.0	0.9797265401266914	-0.5071492282153824	0.0	0.9949874238793669	-0.5427600771869321	0.0	0.9567645661678974	-0.5916163371860204	0.0	0.9593017272182943	-0.6582486969733155	0.0	0.9764885373512925	-0.7211634575278552	0.0	0.961037475870507	-0.5896940950615375	0.0	0.9662516882673308	-0.6528744478243647	0.0	0.9797896188094443	-0.7146953148463066	0.0
13	0.43766666666666665	0.9468508283147269	-0.7238398401624427	0.0	0.9462332364926828	-0.7242991726365702	0.0	0.9436060248537192	-0.8153602574331201	0.0	0.9328954364296529	-0.9096701662752317	0.0	0.9627726105861821	-0.9199891983655375	0.0	0.9576474053004312	-0.9241720099149157	0.0	0.9268302147219	-0.9211296511074042	0.0	0.9500703390460589	-0.7235334184713842	0.0	0.9461847643698754	-0.8138921193570402	0.0	0.93582109294591	-0.90571524958261	0.0	0.9667996488646403	-0.9164982153182359	0.0	0.9608845397280162	-0.9154427284875825	0.0	0.9250595699610566	-0.916839906126578	0.0	0.9675252408886871	-0.5765374395502151	0.0	0.9846660698099995	-0.5110004590729645	0.0	0.9984760892275801	-0.5458607106528054	0.0	0.9577101673532263	-0.5941921905380547	0.0	0.9471192155568373	-0.6584925080863684	0.0	0.9489799501375232	-0.7213349591344773	0.0	0.9621990401080399	-0.592554295772677	0.0	0.9541841881452734	-0.6542501610554411	0.0	0.9549614930670987	-0.715533362979314	0.0
14	0.47133333333333327	0.9474751350194267	-0.7241103127879789	0.0	0.9461160593074819	-0.72444668225414	0.0	0.9434707983185088	-0.8149686515882202	0.0	0.9329786174854169	-0.9092041444789841	0.0	0.9622010843407048	-0.9191330761682516	0.0	0.9562761822186788	-0.9231451721620803	0.0	0.9272047634208985	-0.9203498844478667	0.0	0.9518348170818067	-0.7235827918466462	0.0	0.9465303488469903	-0.8136103820903701	0.0	0.9359790297624343	-0.9053057646821483	0.0	0.9663311916734738	-0.9155581883330041	0.0	0.9610043828671921	-0.9147672790199639	0.0	0.9254212301320016	-0.9162286077470858	0.0	0.9699062490356662	-0.5772272050773587	0.0	0.990963397786317	-0.5128703524298329	0.0	1.0027058840527865	-0.5473443569374554	0.0	0.9591997092988086	-0.5940390946975734	0.0	0.9362142875446592	-0.652881171794069	0.0	0.9225248242694096	-0.7112460937695056	0.0	0.9640443857713773	-0.5929157785203777	0.0	0.9435566790426826	-0.6501432495096344	0.0	0.9319616912517866	-0.7066271524899576	0.0
15	0.505	0.947293937974152	-0.7212223840722201	0.0	0.9451657061951276	-0.7212137442119759	0.0	0.9434313940467461	-0.812263873662577	0.0	0.9333837760005474	-0.9070814182440364	0.0	0.9630129914994523	-0.9168038339912199	0.0	0.9558641104380801	-0.920772090274347	0.0	0.9274757490688226	-0.9178761364309425	0.0	0.9531400633354207	-0.7201663868047108	0.0	0.9470141056395976	-0.810936187544353	0.0	0.9364368871465346	-0.9032414615321448	0.0	0.9666461924895261	-0.9130526467718055	0.0	0.9619609530194457	-0.9126048845457629	0.0	0.9259851084938826	-0.9140415822571926	0.0	0.9724443235587775	-0.5758628041496688	0.0	0.9983611337508462	-0.5128824240149727	0.0	1.0075010645210047	-0.5472986071103315	0.0	0.9612637873636736	-0.5911677094533806	0.0	0.9271655271007745	-0.6420647541511353	0.0	0.8990807607606849	-0.6921813191287994	0.0	0.9666142226469255	-0.5908629987610965	0.0	0.9352666524518203	-0.6410245488551312	0.0	0.9128585800941027	-0.6892647249836491	0.0
16	0.5386666666666666	0.9462081387749492	-0.7157370353344757	0.0	0.9433554789390202	-0.7151745363790608	0.0	0.9433768142692461	-0.8074330432853251	0.0	0.934105205316657	-0.9032335569961343	0.0	0.9649287394498444	-0.9132198769596317	0.0	0.9564143838958002	-0.9171813768717396	0.0	0.9277426640657638	-0.9137883356690132	0.0	0.9534816873863478	-0.7139396026716905	0.0	0.9477170838161831	-0.8060331373520232	0.0	0.9373039946558227	-0.8994588478660954	0.0	0.9677395792472607	-0.9092483353886859	0.0	0.9636511071582515	-0.909052462353335	0.0	0.9268437318831922	-0.9102667258143932	0.0	0.9750437129577261	-0.5726618509450293	0.0	1.006520678874561	-0.5114143137142578	0.0	1.012646662276278	-0.545983073605769	0.0	0.9638878642699411	-0.5859160264985677	0.0	0.920290467729996	-0.6272631359524599	0.0	0.8800207831773729	-0.6666030102928294	0.0	0.9697444964427414	-0.586716089008516	0.0	0.929561543090672	-0.6279029778159895	0.0	0.8984889441162773	-0.6657374713195725	0.0
17	0.5723333333333332	0.9442804227734769	-0.7082393335362759	0.0	0.94067454508953	-0.7069728754233514	0.0	0.9431148273612485	-0.8006754149802046	0.0	0.9350087020367654	-0.897613610279835	0.0	0.9673154378332487	-0.9085303450318798	0.0	0.9576463308720342	-0.9124348181112176	0.0	0.928083449632192	-0.9081353737409936	0.0	0.9526579545973451	-0.7056226921668034	0.0	0.9487151429913319	-0.7991036635047315	0.0	0.9385767115999165	-0.8938581719541885	0.0	0.9693581075462537	-0.904382088205245	0.0	0.9657869859539777	-0.9041346405241768	0.0	0.9280577395027362	-0.9048245531229411	0.0	0.9776835084203531	-0.568070342647958	0.0	1.014976645045773	-0.508954556593288	0.0	1.0178985959574334	-0.5437063126576567	0.0	0.9669124743746709	-0.5788885943195613	0.0	0.9156317094573482	-0.6100250558250636	0.0	0.8659488568252649	-0.6373550226548637	0.0	0.9731733175277444	-0.5809830301684855	0.0	0.926109057523385	-0.612051457067783	0.0	0.8880643362694809	-0.6385586343088167	0.0
18	0.606	0.9416247734093384	-0.6991500912392663	0.0	0.9370887669551643	-0.6971335843792756	0.0	0.9424454288928782	-0.7922778108297539	0.0	0.9358787706430853	-0.8904047171913656	0.0	0.9696431109149157	-0.902881626840087	0.0	0.959255088260171	-0.9066613641237686	0.0	0.9284033842057579	-0.9011180795015459	0.0	0.9507386561399152	-0.6958122624321539	0.0	0.9499705942806338	-0.7904382971023947	0.0	0.9401215922745617	-0.8865097523389786	0.0	0.9712639176150898	-0.8986528326309712	0.0	0.9681779294902662	-0.8979409121479245	0.0	0.9295585530379249	-0.8977923322735951	0.0	0.9804227086321294	-0.5626521714158169	0.0	1.0232619915844807	-0.506025212334152	0.0	1.0230597700079203	-0.5407941810406006	0.0	0.9700640250144623	-0.5707750521991005	0.0	0.9129704913398822	-0.591939882300426	0.0	0.8567479907715649	-0.6071141644208666	0.0	0.9766634404163016	-0.5742931344667156	0.0	0.9243783701049347	-0.5950066077395451	0.0	0.8802531333521274	-0.6100974716923923	0.0
19	0.6396666666666666	0.9383852098946712	-0.6889006368616167	0.0	0.932660648969923	-0.6862024943829051	0.0	0.9412750690937711	-0.7826979817114748	0.0	0.9365322965320794	-0.8820800203837752	0.0	0.9716814363475865	-0.8965368038131448	0.0	0.961027947086672	-0.9001864124473957	0.0	0.9285584520325708	-0.8931919762091138	0.0	0.9479683375222155	-0.6850878216955841	0.0	0.9513273944818916	-0.7804823663600234	0.0	0.9417734012785748	-0.877763805692994	0.0	0.9733025965554014	-0.892256901921837	0.0	0.9707374770717836	-0.8907559261023476	0.0	0.9312208722323997	-0.8895662703467484	0.0	0.9833459720837736	-0.5569738239405757	0.0	1.0310238484532852	-0.5031576770291484	0.0	1.0279881465120329	-0.5376330838105225	0.0	0.9731004148046762	-0.5622539338608552	0.0	0.9118719026638353	-0.5743908103439429	0.0	0.8517771138404803	-0.578155222089942	0.0	0.9800704821583619	-0.5673490803959584	0.0	0.923984709953872	-0.5784667734023704	0.0	0.8745937585204834	-0.582534704709731	0.0
20	0.6733333333333333	0.9347463509151476	-0.678124840602333	0.0	0.9276488941768646	-0.6749059705882229	0.0	0.9396832519936164	-0.7725468468309833	0.0	0.9369110553645364	-0.8732561390237276	0.0	0.9732903633294814	-0.8898478867098027	0.0	0.9626829166015565	-0.8934456784429886	0.0	0.9285590587430912	-0.8849048150195671	0.0	0.9447181382572556	-0.6741414575167392	0.0	0.9526167180037434	-0.7698425876265624	0.0	0.9434243085016586	-0.8681625779039909	0.0	0.9752366787424495	-0.885383308377497	0.0	0.9732559434097933	-0.8829767976541364	0.0	0.9329954271163503	-0.8807184044293285	0.0	0.9864721328129052	-0.5515649692437995	0.0	1.038026946404975	-0.5008640309096178	0.0	1.0325401461508732	-0.5346770175613649	0.0	0.9758528793813538	-0.5540380244238211	0.0	0.9117983822655189	-0.5584342457975014	0.0	0.8500891746841989	-0.5522232821795343	0.0	0.9832644872756559	-0.5608535717481014	0.0	0.9246248504847921	-0.5638100955909443	0.0	0.8714789623998613	-0.5577148535275549	0.0
